<svg version="1.1" id="Layer_1" xmlns="http://www.w3.org/2000/svg" xmlns:xlink="http://www.w3.org/1999/xlink" x="0px" y="0px"
	 width="100%" viewBox="0 0 1080 1080" enable-background="new 0 0 1080 1080" xml:space="preserve">
<path fill="#000000" opacity="1.000000" stroke="none" 
	d="
M598.000000,1081.000000 
	C398.689606,1081.000000 199.879227,1081.000000 1.034416,1081.000000 
	C1.034416,721.064514 1.034416,361.128967 1.034416,1.096730 
	C360.893951,1.096730 720.787903,1.096730 1080.840942,1.096730 
	C1080.840942,360.999939 1080.840942,720.999939 1080.840942,1081.000000 
	C920.128479,1081.000000 759.314270,1081.000000 598.000000,1081.000000 
M592.500000,939.000061 
	C611.262329,939.000061 630.024719,939.000061 648.000061,939.000061 
	C648.000061,927.019043 648.165039,915.608032 647.896606,904.207275 
	C647.818970,900.909241 647.309875,897.109741 645.582520,894.464966 
	C641.544006,888.281372 636.647095,882.658447 631.701050,876.298340 
	C635.842896,869.305969 641.493896,861.855408 642.359924,851.609253 
	C643.524475,837.830566 643.171143,824.651672 637.421814,811.829468 
	C629.257935,793.622314 614.080566,781.136230 601.146057,766.837158 
	C594.966553,760.005737 588.143433,753.759888 581.708679,747.154541 
	C578.633911,743.998230 578.380005,740.445618 580.779663,736.659424 
	C585.623169,729.017273 586.595520,720.591980 586.063538,711.734192 
	C585.589905,703.847290 582.159180,697.673767 576.027100,693.074890 
	C568.503479,687.432434 559.540771,686.100647 550.468140,684.819763 
	C546.714539,684.289856 541.849609,686.001099 539.326355,680.927307 
	C527.030884,656.203064 515.347412,631.178711 507.405579,604.693909 
	C500.775391,582.583252 494.059937,560.499939 490.717804,537.459839 
	C488.021973,518.875000 486.110962,500.341034 485.959076,481.589142 
	C485.934113,478.504639 485.155975,475.424042 485.162933,472.342621 
	C485.165466,471.230804 486.281067,469.350128 487.182495,469.151154 
	C490.340271,468.454163 493.632965,468.391907 496.861023,467.982758 
	C499.428406,467.657349 502.038818,467.402557 504.518066,466.713257 
	C508.350677,465.647705 512.095703,464.261780 515.863464,462.969696 
	C523.768799,460.258759 532.192261,459.042450 538.388306,452.249146 
	C547.186768,442.602661 546.737305,425.617279 536.434265,417.979889 
	C524.673706,409.262085 511.978210,402.288605 498.340302,396.963013 
	C491.993622,394.484589 485.777985,391.670471 478.570709,388.613068 
	C483.413086,383.890228 486.785980,379.584381 491.079987,376.606934 
	C502.931335,368.389130 511.282959,356.985413 519.894836,345.879364 
	C529.745117,333.176361 534.936340,318.137817 538.789246,302.774963 
	C540.955444,294.137207 542.490784,285.150696 542.733948,276.278076 
	C542.950317,268.381500 540.963440,260.429260 540.004761,252.494812 
	C537.722107,233.603729 529.966797,216.663956 519.703308,201.137405 
	C513.556030,191.837723 505.275665,183.797119 497.187592,175.983994 
	C491.745453,170.726822 485.184235,166.507050 478.736969,162.435486 
	C463.049927,152.528793 445.947357,145.576553 427.349304,145.352188 
	C409.944397,145.142212 392.468201,142.920563 375.065735,149.497528 
	C362.857605,154.111374 350.432251,157.784302 339.523682,165.156235 
	C324.871338,175.058212 312.335480,187.052383 302.511047,201.900909 
	C293.298859,215.824142 287.259155,230.736664 283.676636,247.166733 
	C279.869324,264.627838 280.739777,281.792633 283.233459,299.002258 
	C285.163727,312.323303 290.144043,324.785797 297.069397,336.458008 
	C306.878387,352.990417 318.901672,367.486053 334.350677,379.074005 
	C337.927582,381.756958 341.082825,385.002106 345.455597,388.901245 
	C335.302734,392.934082 326.289459,396.219086 317.524109,400.068604 
	C305.843872,405.198242 293.988770,410.109436 284.864014,419.612396 
	C272.681946,432.299438 278.308624,452.404510 293.481384,458.107117 
	C305.810425,462.740906 318.408112,465.933136 331.353638,468.015778 
	C335.027679,468.606842 337.527161,469.828247 337.141724,474.597015 
	C336.158691,486.760040 336.189117,499.016876 334.910126,511.140869 
	C333.423920,525.229187 331.654510,539.356567 328.787201,553.214478 
	C324.313049,574.838074 319.248596,596.398010 310.942230,616.953979 
	C302.449463,637.971191 293.491638,658.800598 284.726074,679.707458 
	C283.161041,683.440125 280.390289,684.913208 276.278656,685.103943 
	C270.587891,685.367981 264.746979,685.677917 259.292145,687.155823 
	C239.515930,692.513733 231.353683,711.638000 239.195847,729.529907 
	C240.814209,733.222107 242.692886,736.810669 244.103180,740.577515 
	C244.554871,741.783997 244.412476,743.870850 243.634155,744.763367 
	C240.645248,748.190674 237.208054,751.221313 234.083069,754.536621 
	C225.007706,764.164612 216.358475,774.224854 206.882568,783.437256 
	C194.032104,795.930542 185.311905,810.428650 181.455566,828.007446 
	C177.776672,844.777527 181.288269,859.970398 190.655884,873.951904 
	C192.505005,876.711792 191.884277,878.163818 189.930542,880.049438 
	C186.597870,883.266113 183.101746,886.358826 180.114197,889.877136 
	C175.663528,895.118530 174.774521,901.399963 174.821579,908.218994 
	C174.891830,918.396606 174.042007,928.580566 173.572891,939.000061 
	C313.554138,939.000061 452.527069,939.000061 592.500000,939.000061 
M734.322876,379.079346 
	C728.999634,380.351746 725.425903,383.969086 726.160156,387.341553 
	C726.830322,390.419922 731.842407,394.938538 734.278809,393.801514 
	C736.884338,392.585480 740.136475,390.079285 740.624329,387.639893 
	C741.322754,384.147247 739.505127,380.396973 734.322876,379.079346 
M884.965210,933.396362 
	C883.442322,937.344604 885.577820,940.259277 888.602905,941.624268 
	C891.572388,942.964111 895.018066,942.430481 897.334045,939.201294 
	C899.548767,936.113281 899.477234,933.349365 896.965759,930.462463 
	C892.738403,925.603210 888.887085,926.267212 884.965210,933.396362 
M782.956360,340.664886 
	C780.891785,336.752258 778.143799,334.641449 773.563232,336.898224 
	C770.105164,338.601929 767.995605,341.125702 769.585083,344.995178 
	C770.968262,348.362274 773.398804,351.365601 777.548889,350.679504 
	C781.921875,349.956543 783.832458,346.247314 782.956360,340.664886 
M599.245605,380.223938 
	C597.521423,382.555603 593.950500,385.511597 594.481079,387.081024 
	C595.410278,389.829376 598.541931,392.472595 601.379578,393.669403 
	C602.821655,394.277618 606.522156,392.157227 607.586182,390.329742 
	C608.751770,388.327850 608.742126,385.029175 608.015015,382.675476 
	C606.801880,378.748596 602.948914,380.285370 599.245605,380.223938 
M690.000000,148.414551 
	C690.340149,149.308914 690.438843,150.460159 691.065735,151.049438 
	C692.938110,152.809372 695.679138,156.090240 696.885742,155.631775 
	C699.893982,154.488831 702.959290,152.009842 704.520081,149.234085 
	C705.198120,148.028198 702.727356,144.203873 700.826111,142.570740 
	C696.772827,139.089111 692.658875,141.195282 690.000000,148.414551 
M899.689880,916.972046 
	C903.934509,918.333801 908.033325,915.899048 909.304077,911.260925 
	C910.450623,907.076050 908.214905,904.438721 902.427185,903.148621 
	C899.117737,902.411011 895.111877,905.153015 895.278259,909.094910 
	C895.385437,911.634583 897.716248,914.080444 899.689880,916.972046 
M893.058594,889.474915 
	C892.684937,887.137207 892.961914,884.341614 891.738037,882.602173 
	C890.700806,881.128113 887.510620,879.765076 886.016357,880.327515 
	C883.424561,881.302917 880.686646,883.424927 879.429260,885.813232 
	C878.719727,887.161011 880.307800,890.518799 881.800537,892.062500 
	C885.132812,895.508545 889.083496,894.645752 893.058594,889.474915 
M673.531372,149.891388 
	C673.914124,148.840286 674.303589,147.791580 674.678467,146.737701 
	C676.097229,142.749298 674.425232,139.908691 670.857178,138.525101 
	C667.737061,137.315155 664.757263,137.538498 662.388794,140.927887 
	C660.060730,144.259399 660.465088,147.435623 662.680481,149.897385 
	C665.543213,153.078430 669.380066,152.662537 673.531372,149.891388 
M787.807068,308.036774 
	C784.189941,309.025482 781.971802,311.366913 783.139099,315.066071 
	C783.918640,317.536194 785.754517,321.071014 787.646423,321.443481 
	C790.092529,321.925079 793.438049,320.210724 795.662048,318.491882 
	C796.854187,317.570496 797.321838,314.338867 796.684143,312.710785 
	C795.388794,309.403870 792.408386,307.736786 787.807068,308.036774 
M763.493103,370.010010 
	C766.234863,365.853882 763.859802,362.920593 760.866028,360.514191 
	C758.794189,358.848907 752.089294,361.337494 750.498718,363.994629 
	C749.007263,366.486237 750.610291,371.043732 753.627075,372.888489 
	C757.287598,375.126923 760.423157,374.375153 763.493103,370.010010 
M776.910461,941.610901 
	C780.634338,937.754639 781.129883,934.177002 778.254272,930.850281 
	C775.567444,927.742004 772.172974,927.905884 769.309570,930.098938 
	C766.790405,932.028381 764.895569,934.658081 766.827332,938.420471 
	C768.983521,942.619873 771.800659,944.308411 776.910461,941.610901 
M884.338196,874.035461 
	C888.274109,874.890625 892.111267,872.911255 892.423035,868.658936 
	C892.601929,866.218445 890.791321,862.735291 888.759155,861.233032 
	C885.454346,858.790222 881.072998,860.834534 879.024902,865.085938 
	C876.702698,869.906189 880.013550,872.070312 884.338196,874.035461 
M764.567383,591.110291 
	C761.846497,590.409058 759.054138,589.002075 756.431091,589.267700 
	C754.821106,589.430725 752.753540,591.924622 752.158813,593.778442 
	C751.061829,597.197937 752.353699,600.755432 755.879211,601.769714 
	C758.194885,602.435913 761.567261,601.822754 763.609863,600.479797 
	C766.625549,598.497009 766.760864,595.061890 764.567383,591.110291 
M857.964417,941.452576 
	C860.085876,943.733521 862.346741,944.465820 865.104004,942.386414 
	C868.709412,939.667297 869.075928,936.089111 867.916443,932.159729 
	C866.961304,928.922913 864.193604,928.434143 861.552734,929.123657 
	C859.340027,929.701416 855.850037,930.991394 855.628723,932.392883 
	C855.204285,935.080139 856.698364,938.070374 857.964417,941.452576 
M561.979126,349.985229 
	C565.323181,348.623047 567.715515,345.624573 566.503418,342.646027 
	C565.395508,339.923492 562.140991,336.965027 559.343079,336.354889 
	C556.600037,335.756622 553.274109,337.696777 552.565125,341.852081 
	C551.724182,346.780853 554.849182,350.001373 561.979126,349.985229 
M802.562683,282.095306 
	C801.371887,279.382629 800.050903,276.415710 796.476990,277.117065 
	C794.188782,277.566132 791.267212,278.652222 790.206543,280.406311 
	C789.143494,282.164337 789.324280,285.432465 790.244507,287.453888 
	C791.620972,290.477264 794.766052,292.027618 798.132812,290.871429 
	C801.740417,289.632538 802.915405,286.440094 802.562683,282.095306 
M722.990601,151.044907 
	C722.002991,152.260986 720.793762,153.359131 720.071472,154.716431 
	C718.281921,158.079575 718.495850,161.382980 721.633484,163.832352 
	C724.645996,166.184082 728.766174,165.005753 731.931641,161.612350 
	C735.060364,158.258392 732.880310,155.489273 730.694763,153.512650 
	C729.016663,151.994919 726.152832,151.788162 722.990601,151.044907 
M560.541748,201.022537 
	C563.102722,203.561020 565.937622,203.470657 568.046692,200.864944 
	C569.525330,199.038055 570.844543,196.407669 570.781067,194.177521 
	C570.701538,191.383255 568.675415,188.198547 565.603638,188.490112 
	C562.738647,188.762039 559.164429,190.271973 557.520020,192.455322 
	C555.528992,195.098938 557.117371,198.404404 560.541748,201.022537 
M588.976929,180.469528 
	C589.843445,178.949860 591.458069,177.403854 591.405701,175.916550 
	C591.321533,173.526291 590.794006,170.555344 589.274109,168.939529 
	C586.358215,165.839722 582.450317,166.738159 580.096069,169.716156 
	C578.715881,171.462021 577.920349,175.210327 578.880127,176.933762 
	C580.681885,180.168839 583.749146,183.088593 588.976929,180.469528 
M757.585693,171.146133 
	C756.212158,166.896698 752.814819,166.395935 749.234497,167.109650 
	C746.150818,167.724396 744.210205,169.729919 743.948486,173.220047 
	C743.663635,177.019348 745.691772,178.980042 748.792236,180.306427 
	C753.647278,182.383423 757.798706,178.544449 757.585693,171.146133 
M765.988831,199.481171 
	C768.218384,201.711578 770.391541,204.040070 774.052307,202.462692 
	C777.558105,200.952042 779.673523,195.630112 777.946228,191.993179 
	C776.340027,188.610947 773.824158,187.291351 770.065918,189.003815 
	C765.678467,191.002960 763.757446,194.918900 765.988831,199.481171 
M580.274475,601.937988 
	C581.434509,599.446716 583.663147,596.891174 583.517883,594.478516 
	C583.265564,590.286133 578.846680,588.028687 574.849365,589.093018 
	C571.201599,590.064331 568.570923,594.050964 569.592407,597.059753 
	C570.980042,601.147217 575.311951,603.326599 580.274475,601.937988 
M631.999023,146.351547 
	C631.297852,150.752838 634.029968,155.318604 637.661987,156.011215 
	C642.203491,156.877304 643.779236,153.718826 644.937927,150.457672 
	C646.169800,146.990158 645.023865,144.276230 641.376831,142.850540 
	C637.531433,141.347305 634.088562,140.996399 631.999023,146.351547 
M751.531067,571.001282 
	C752.448608,570.739685 753.908691,570.745483 754.191772,570.171143 
	C755.573120,567.368469 757.631897,564.387695 757.564636,561.514038 
	C757.482605,558.004944 753.740112,557.005310 750.643799,557.095825 
	C747.183533,557.196960 744.447327,559.095520 744.113770,562.811951 
	C743.697205,567.452576 746.466553,569.920837 751.531067,571.001282 
M581.094666,570.562073 
	C583.523987,572.292419 586.299011,572.600525 588.053223,570.204773 
	C589.572205,568.130249 590.753540,565.266052 590.737976,562.759094 
	C590.721741,560.127319 588.928650,557.168823 585.697693,557.428040 
	C583.198181,557.628540 579.856262,558.510986 578.575989,560.298584 
	C576.214966,563.595032 577.255676,567.301453 581.094666,570.562073 
M791.107910,258.544037 
	C798.158142,259.875092 803.826843,255.526840 801.475830,250.343079 
	C800.617249,248.450043 798.045654,246.873306 795.914368,246.128479 
	C792.881226,245.068542 789.671570,246.312408 788.467957,249.234848 
	C787.237366,252.222733 787.223755,255.700623 791.107910,258.544037 
M788.840820,215.397980 
	C784.416626,215.126022 779.032349,218.101715 779.385803,221.621582 
	C779.665771,224.410049 781.939575,227.885803 784.350098,229.249313 
	C785.864502,230.105927 790.084900,228.325089 791.654175,226.495087 
	C795.010559,222.580963 792.666138,218.950729 788.840820,215.397980 
M567.492920,632.992798 
	C569.329773,631.104187 571.964111,629.515625 572.814453,627.255737 
	C574.056763,623.954224 572.643005,620.580750 569.157104,619.134216 
	C566.450134,618.010864 563.696472,618.557373 561.509277,620.967773 
	C557.580933,625.296997 559.667603,630.217712 567.492920,632.992798 
M769.280396,619.003113 
	C764.446960,618.194397 763.405212,621.249390 762.369507,625.096252 
	C761.315613,629.010986 763.656616,630.388306 766.141663,632.000305 
	C769.461304,634.153687 771.998230,632.454224 774.290405,630.192383 
	C777.881348,626.648987 776.014587,621.741638 769.280396,619.003113 
M832.383301,943.002502 
	C836.913208,942.379211 839.066406,939.275513 838.828979,935.220337 
	C838.604126,931.380066 836.275452,928.805054 831.751831,928.950195 
	C828.807922,929.044617 826.517090,929.496704 825.995300,932.886902 
	C825.049011,939.035095 826.455322,941.601685 832.383301,943.002502 
M898.349915,846.004028 
	C903.088501,845.852356 904.933716,841.888245 904.500061,838.740906 
	C904.157349,836.253540 900.780151,833.388855 898.087769,832.224915 
	C894.839905,830.820801 891.957642,833.015991 891.087585,836.545715 
	C889.910583,841.320435 892.449524,844.820557 898.349915,846.004028 
M584.003967,530.875427 
	C584.001038,531.537659 583.966064,532.201538 584.000488,532.861877 
	C584.240967,537.481445 587.036499,540.712463 590.765259,539.827454 
	C594.324890,538.982605 597.684204,536.926453 596.884827,532.387207 
	C596.499146,530.197388 595.488586,526.817749 594.028442,526.370911 
	C590.267944,525.220337 586.080994,525.358826 584.003967,530.875427 
M570.029358,406.475189 
	C571.221008,406.335419 572.431274,406.284729 573.601013,406.040131 
	C578.098938,405.099731 578.271851,401.358093 578.280151,397.980927 
	C578.289185,394.334198 575.615662,393.058746 572.308716,393.005798 
	C568.938843,392.951813 565.804932,393.954712 565.152222,397.546173 
	C564.513123,401.062683 564.647766,404.857758 570.029358,406.475189 
M808.981750,933.529419 
	C808.382385,932.584717 807.918823,930.969238 807.159302,930.815430 
	C804.380310,930.252625 800.933594,929.071228 798.793823,930.172852 
	C795.478027,931.879944 795.017456,935.694580 797.062012,939.132019 
	C798.770142,942.003784 801.174011,944.272644 804.749939,942.584900 
	C808.058228,941.023438 810.441956,938.521667 808.981750,933.529419 
M614.964172,163.498154 
	C615.636353,161.721191 616.712708,159.985077 616.897278,158.158829 
	C617.292114,154.251953 614.631897,151.981628 611.366760,151.115540 
	C607.686096,150.139221 604.696960,151.972092 604.132263,155.805679 
	C603.805176,158.025742 604.131470,161.132233 605.493774,162.629944 
	C607.659058,165.010422 610.977661,166.061035 614.964172,163.498154 
M715.984070,928.536682 
	C709.201904,928.333313 705.234009,933.063965 707.962524,938.192993 
	C709.545532,941.168884 711.578491,943.721497 714.995239,942.795715 
	C716.917114,942.274902 719.351990,939.974731 719.699036,938.127380 
	C720.304016,934.906860 721.495117,930.693542 715.984070,928.536682 
M783.830811,649.308838 
	C780.329834,649.056946 776.235657,647.540771 774.179260,651.710754 
	C772.498840,655.118469 773.223389,658.646240 776.674561,660.896790 
	C779.692078,662.864502 783.037292,663.676086 785.346680,660.039551 
	C787.502014,656.645630 788.619873,652.929749 783.830811,649.308838 
M577.627625,360.997314 
	C575.907471,361.686829 573.703125,361.930511 572.570251,363.160828 
	C570.367798,365.552582 570.138916,369.083191 572.746643,370.922546 
	C575.016296,372.523407 578.586670,373.472595 581.284851,373.002655 
	C585.674500,372.238159 585.710205,367.755219 584.702881,364.728516 
	C584.123413,362.987457 580.651489,362.209045 577.627625,360.997314 
M865.995300,783.408081 
	C866.223755,784.329102 866.307739,785.318359 866.705200,786.159424 
	C868.552307,790.068237 872.160034,791.501099 875.520508,789.748779 
	C879.250549,787.803711 880.367737,783.721069 878.548706,780.028870 
	C876.761475,776.401245 873.600647,777.184753 870.622498,776.972534 
	C866.343872,776.667725 867.199707,780.441345 865.995300,783.408081 
M583.965820,465.556641 
	C581.271973,469.069397 580.831726,472.481384 584.862122,475.257019 
	C587.506531,477.078156 590.174011,478.195831 593.261414,475.386444 
	C596.397766,472.532501 596.837402,469.661682 594.637268,466.294647 
	C592.523865,463.060303 588.647278,462.630798 583.965820,465.556641 
M740.084839,494.458038 
	C734.799988,496.225372 733.365723,498.688782 734.993469,503.202667 
	C736.193115,506.529572 740.828430,508.441437 744.255127,507.008545 
	C747.907837,505.481201 748.406250,502.327759 747.946594,499.031403 
	C747.384521,495.000214 744.258728,494.160004 740.084839,494.458038 
M737.007690,936.364929 
	C738.514343,942.265503 742.987122,944.708496 746.752197,941.769775 
	C749.682129,939.482910 751.336487,936.440186 749.443970,933.227234 
	C748.208252,931.129517 745.343323,928.834839 743.114685,928.736023 
	C739.292969,928.566528 737.220276,931.619568 737.007690,936.364929 
M690.608459,938.869812 
	C690.734802,937.239624 691.070984,935.592651 690.941711,933.982971 
	C690.704407,931.028381 686.492065,927.331970 684.310364,928.557373 
	C681.771851,929.983093 678.884888,932.292236 678.097717,934.823792 
	C677.537903,936.624390 679.650696,940.590393 681.562500,941.495789 
	C684.095642,942.695618 687.967102,943.252686 690.608459,938.869812 
M883.080444,807.639893 
	C883.705139,809.267761 884.247192,810.933533 884.971863,812.515564 
	C886.417297,815.671082 889.150452,817.260681 891.985596,815.264771 
	C894.186768,813.715149 896.557617,810.697083 896.592285,808.299072 
	C896.622131,806.233948 893.821045,802.995117 891.624390,802.289246 
	C888.097717,801.155945 884.750854,802.856812 883.080444,807.639893 
M825.156433,687.043823 
	C824.495728,687.023682 823.790344,686.842896 823.182190,687.011902 
	C820.939209,687.635437 817.281555,687.865601 816.818909,689.180603 
	C815.963501,691.611938 816.252441,695.099976 817.483093,697.383423 
	C818.315918,698.928833 821.723511,700.064514 823.705566,699.735046 
	C825.648132,699.412170 827.852966,697.327271 828.858276,695.438538 
	C830.655151,692.062866 828.342651,689.522522 825.156433,687.043823 
M846.821960,758.039856 
	C843.573608,760.165649 842.020996,763.356140 844.409851,766.447510 
	C846.002136,768.508240 849.408142,770.484009 851.826843,770.291626 
	C855.793152,769.976074 857.996399,764.812622 856.652954,761.219116 
	C855.230042,757.412903 852.335571,756.350403 846.821960,758.039856 
M789.998840,679.833984 
	C789.998230,680.663635 789.658386,681.749695 790.057251,682.277283 
	C791.578003,684.288940 793.015564,686.858765 795.114380,687.772583 
	C796.638611,688.436218 799.725525,687.406311 801.091736,686.078247 
	C802.980652,684.241943 804.376465,681.802979 802.323608,678.555542 
	C799.052063,673.380310 794.485718,673.365540 789.998840,679.833984 
M795.729187,435.077271 
	C794.997864,435.418671 794.270325,435.768494 793.534546,436.100037 
	C789.828491,437.769867 788.946350,441.256226 790.350281,444.197754 
	C791.368958,446.331940 795.223755,449.122284 796.724182,448.583740 
	C799.543579,447.571777 802.617493,444.738159 803.616394,441.955200 
	C804.475037,439.563019 802.486084,436.312378 798.731995,435.930023 
	C797.971375,435.852570 797.255554,435.334412 795.729187,435.077271 
M836.597107,739.102722 
	C832.676453,735.917542 828.591248,735.783813 825.897949,738.591858 
	C822.734558,741.890015 824.246094,745.323303 826.581848,747.576660 
	C828.173645,749.112427 832.087463,750.114197 833.847107,749.201965 
	C837.206360,747.460510 839.460205,744.086792 836.597107,739.102722 
M587.997681,499.811981 
	C587.998535,500.644928 587.644470,501.817139 588.060913,502.252808 
	C589.986572,504.267090 591.881042,507.001862 594.275085,507.636536 
	C595.889221,508.064453 598.579895,505.707977 600.317505,504.090515 
	C602.848083,501.734985 601.464661,498.936584 599.859985,496.806763 
	C596.599670,492.479614 592.541626,493.326721 587.997681,499.811981 
M843.605286,718.866394 
	C843.732483,718.060791 844.056152,717.228943 843.952698,716.454163 
	C843.526001,713.258667 842.661072,710.214172 838.684692,710.034302 
	C835.245728,709.878845 831.120117,709.553040 831.025024,714.474976 
	C830.978088,716.907837 831.996094,720.487061 833.754700,721.579163 
	C836.801208,723.471191 840.820496,723.920105 843.605286,718.866394 
M791.819641,419.661774 
	C793.525330,417.341797 796.402893,415.112976 796.592468,412.675079 
	C796.766602,410.435852 794.869446,407.296082 791.207703,406.969330 
	C786.480408,406.547455 783.218201,409.096588 783.029846,413.706299 
	C782.865906,417.718384 785.581909,419.827393 791.819641,419.661774 
M746.072021,526.050049 
	C739.864685,526.007690 738.818115,526.896729 738.995178,532.061401 
	C739.162964,536.953857 741.621460,539.265930 746.362488,538.989868 
	C750.041138,538.775696 752.828308,535.527344 751.789612,531.388855 
	C751.295410,529.419678 748.556641,528.013855 746.072021,526.050049 
M770.620239,453.034515 
	C769.542969,453.727783 768.447754,454.394928 767.391724,455.119202 
	C764.259766,457.267395 764.419373,460.003448 766.374695,462.718353 
	C768.636597,465.858978 772.017029,466.492737 775.223450,464.842834 
	C778.078979,463.373474 780.019531,460.604797 778.484497,457.135864 
	C777.204285,454.242615 775.515747,451.308838 770.620239,453.034515 
M769.983093,397.811066 
	C769.114807,394.456421 766.465820,392.390839 763.588806,393.450073 
	C761.007263,394.400482 758.204834,397.017456 757.252197,399.556610 
	C756.042969,402.780151 759.673401,406.347992 763.425171,406.807556 
	C766.613342,407.198090 769.459961,403.649200 769.983093,397.811066 
M751.980835,474.514374 
	C753.955261,471.554138 754.221436,468.562866 751.431641,466.063049 
	C748.778748,463.685913 745.177307,463.398285 742.634155,465.404968 
	C741.007996,466.688080 739.958923,470.045410 740.300415,472.212982 
	C741.132202,477.492401 745.407410,478.397980 751.980835,474.514374 
z"/>
<path fill="#FEFEFE" opacity="1.000000" stroke="none" 
	d="
M592.000000,939.000061 
	C452.527069,939.000061 313.554138,939.000061 173.572891,939.000061 
	C174.042007,928.580566 174.891830,918.396606 174.821579,908.218994 
	C174.774521,901.399963 175.663528,895.118530 180.114197,889.877136 
	C183.101746,886.358826 186.597870,883.266113 189.930542,880.049438 
	C191.884277,878.163818 192.505005,876.711792 190.655884,873.951904 
	C181.288269,859.970398 177.776672,844.777527 181.455566,828.007446 
	C185.311905,810.428650 194.032104,795.930542 206.882568,783.437256 
	C216.358475,774.224854 225.007706,764.164612 234.083069,754.536621 
	C237.208054,751.221313 240.645248,748.190674 243.634155,744.763367 
	C244.412476,743.870850 244.554871,741.783997 244.103180,740.577515 
	C242.692886,736.810669 240.814209,733.222107 239.195847,729.529907 
	C231.353683,711.638000 239.515930,692.513733 259.292145,687.155823 
	C264.746979,685.677917 270.587891,685.367981 276.278656,685.103943 
	C280.390289,684.913208 283.161041,683.440125 284.726074,679.707458 
	C293.491638,658.800598 302.449463,637.971191 310.942230,616.953979 
	C319.248596,596.398010 324.313049,574.838074 328.787201,553.214478 
	C331.654510,539.356567 333.423920,525.229187 334.910126,511.140869 
	C336.189117,499.016876 336.158691,486.760040 337.141724,474.597015 
	C337.527161,469.828247 335.027679,468.606842 331.353638,468.015778 
	C318.408112,465.933136 305.810425,462.740906 293.481384,458.107117 
	C278.308624,452.404510 272.681946,432.299438 284.864014,419.612396 
	C293.988770,410.109436 305.843872,405.198242 317.524109,400.068604 
	C326.289459,396.219086 335.302734,392.934082 345.455597,388.901245 
	C341.082825,385.002106 337.927582,381.756958 334.350677,379.074005 
	C318.901672,367.486053 306.878387,352.990417 297.069397,336.458008 
	C290.144043,324.785797 285.163727,312.323303 283.233459,299.002258 
	C280.739777,281.792633 279.869324,264.627838 283.676636,247.166733 
	C287.259155,230.736664 293.298859,215.824142 302.511047,201.900909 
	C312.335480,187.052383 324.871338,175.058212 339.523682,165.156235 
	C350.432251,157.784302 362.857605,154.111374 375.065735,149.497528 
	C392.468201,142.920563 409.944397,145.142212 427.349304,145.352188 
	C445.947357,145.576553 463.049927,152.528793 478.736969,162.435486 
	C485.184235,166.507050 491.745453,170.726822 497.187592,175.983994 
	C505.275665,183.797119 513.556030,191.837723 519.703308,201.137405 
	C529.966797,216.663956 537.722107,233.603729 540.004761,252.494812 
	C540.963440,260.429260 542.950317,268.381500 542.733948,276.278076 
	C542.490784,285.150696 540.955444,294.137207 538.789246,302.774963 
	C534.936340,318.137817 529.745117,333.176361 519.894836,345.879364 
	C511.282959,356.985413 502.931335,368.389130 491.079987,376.606934 
	C486.785980,379.584381 483.413086,383.890228 478.570709,388.613068 
	C485.777985,391.670471 491.993622,394.484589 498.340302,396.963013 
	C511.978210,402.288605 524.673706,409.262085 536.434265,417.979889 
	C546.737305,425.617279 547.186768,442.602661 538.388306,452.249146 
	C532.192261,459.042450 523.768799,460.258759 515.863464,462.969696 
	C512.095703,464.261780 508.350677,465.647705 504.518066,466.713257 
	C502.038818,467.402557 499.428406,467.657349 496.861023,467.982758 
	C493.632965,468.391907 490.340271,468.454163 487.182495,469.151154 
	C486.281067,469.350128 485.165466,471.230804 485.162933,472.342621 
	C485.155975,475.424042 485.934113,478.504639 485.959076,481.589142 
	C486.110962,500.341034 488.021973,518.875000 490.717804,537.459839 
	C494.059937,560.499939 500.775391,582.583252 507.405579,604.693909 
	C515.347412,631.178711 527.030884,656.203064 539.326355,680.927307 
	C541.849609,686.001099 546.714539,684.289856 550.468140,684.819763 
	C559.540771,686.100647 568.503479,687.432434 576.027100,693.074890 
	C582.159180,697.673767 585.589905,703.847290 586.063538,711.734192 
	C586.595520,720.591980 585.623169,729.017273 580.779663,736.659424 
	C578.380005,740.445618 578.633911,743.998230 581.708679,747.154541 
	C588.143433,753.759888 594.966553,760.005737 601.146057,766.837158 
	C614.080566,781.136230 629.257935,793.622314 637.421814,811.829468 
	C643.171143,824.651672 643.524475,837.830566 642.359924,851.609253 
	C641.493896,861.855408 635.842896,869.305969 631.701050,876.298340 
	C636.647095,882.658447 641.544006,888.281372 645.582520,894.464966 
	C647.309875,897.109741 647.818970,900.909241 647.896606,904.207275 
	C648.165039,915.608032 648.000061,927.019043 648.000061,939.000061 
	C630.024719,939.000061 611.262329,939.000061 592.000000,939.000061 
z"/>
<path fill="#FCFCFC" opacity="1.000000" stroke="none" 
	d="
M734.646484,379.305969 
	C739.505127,380.396973 741.322754,384.147247 740.624329,387.639893 
	C740.136475,390.079285 736.884338,392.585480 734.278809,393.801514 
	C731.842407,394.938538 726.830322,390.419922 726.160156,387.341553 
	C725.425903,383.969086 728.999634,380.351746 734.646484,379.305969 
z"/>
<path fill="#FCFCFC" opacity="1.000000" stroke="none" 
	d="
M884.997314,933.017944 
	C888.887085,926.267212 892.738403,925.603210 896.965759,930.462463 
	C899.477234,933.349365 899.548767,936.113281 897.334045,939.201294 
	C895.018066,942.430481 891.572388,942.964111 888.602905,941.624268 
	C885.577820,940.259277 883.442322,937.344604 884.997314,933.017944 
z"/>
<path fill="#FCFCFC" opacity="1.000000" stroke="none" 
	d="
M782.978821,341.050110 
	C783.832458,346.247314 781.921875,349.956543 777.548889,350.679504 
	C773.398804,351.365601 770.968262,348.362274 769.585083,344.995178 
	C767.995605,341.125702 770.105164,338.601929 773.563232,336.898224 
	C778.143799,334.641449 780.891785,336.752258 782.978821,341.050110 
z"/>
<path fill="#FDFDFD" opacity="1.000000" stroke="none" 
	d="
M599.647339,380.118835 
	C602.948914,380.285370 606.801880,378.748596 608.015015,382.675476 
	C608.742126,385.029175 608.751770,388.327850 607.586182,390.329742 
	C606.522156,392.157227 602.821655,394.277618 601.379578,393.669403 
	C598.541931,392.472595 595.410278,389.829376 594.481079,387.081024 
	C593.950500,385.511597 597.521423,382.555603 599.647339,380.118835 
z"/>
<path fill="#FCFCFC" opacity="1.000000" stroke="none" 
	d="
M689.999451,148.019653 
	C692.658875,141.195282 696.772827,139.089111 700.826111,142.570740 
	C702.727356,144.203873 705.198120,148.028198 704.520081,149.234085 
	C702.959290,152.009842 699.893982,154.488831 696.885742,155.631775 
	C695.679138,156.090240 692.938110,152.809372 691.065735,151.049438 
	C690.438843,150.460159 690.340149,149.308914 689.999451,148.019653 
z"/>
<path fill="#FCFDFD" opacity="1.000000" stroke="none" 
	d="
M899.370178,916.770203 
	C897.716248,914.080444 895.385437,911.634583 895.278259,909.094910 
	C895.111877,905.153015 899.117737,902.411011 902.427185,903.148621 
	C908.214905,904.438721 910.450623,907.076050 909.304077,911.260925 
	C908.033325,915.899048 903.934509,918.333801 899.370178,916.770203 
z"/>
<path fill="#FCFDFD" opacity="1.000000" stroke="none" 
	d="
M893.004517,889.864746 
	C889.083496,894.645752 885.132812,895.508545 881.800537,892.062500 
	C880.307800,890.518799 878.719727,887.161011 879.429260,885.813232 
	C880.686646,883.424927 883.424561,881.302917 886.016357,880.327515 
	C887.510620,879.765076 890.700806,881.128113 891.738037,882.602173 
	C892.961914,884.341614 892.684937,887.137207 893.004517,889.864746 
z"/>
<path fill="#FBFBFC" opacity="1.000000" stroke="none" 
	d="
M673.241455,150.188828 
	C669.380066,152.662537 665.543213,153.078430 662.680481,149.897385 
	C660.465088,147.435623 660.060730,144.259399 662.388794,140.927887 
	C664.757263,137.538498 667.737061,137.315155 670.857178,138.525101 
	C674.425232,139.908691 676.097229,142.749298 674.678467,146.737701 
	C674.303589,147.791580 673.914124,148.840286 673.241455,150.188828 
z"/>
<path fill="#FCFDFD" opacity="1.000000" stroke="none" 
	d="
M788.227417,308.018494 
	C792.408386,307.736786 795.388794,309.403870 796.684143,312.710785 
	C797.321838,314.338867 796.854187,317.570496 795.662048,318.491882 
	C793.438049,320.210724 790.092529,321.925079 787.646423,321.443481 
	C785.754517,321.071014 783.918640,317.536194 783.139099,315.066071 
	C781.971802,311.366913 784.189941,309.025482 788.227417,308.018494 
z"/>
<path fill="#FCFDFD" opacity="1.000000" stroke="none" 
	d="
M763.260742,370.322235 
	C760.423157,374.375153 757.287598,375.126923 753.627075,372.888489 
	C750.610291,371.043732 749.007263,366.486237 750.498718,363.994629 
	C752.089294,361.337494 758.794189,358.848907 760.866028,360.514191 
	C763.859802,362.920593 766.234863,365.853882 763.260742,370.322235 
z"/>
<path fill="#FBFBFB" opacity="1.000000" stroke="none" 
	d="
M776.603882,941.864868 
	C771.800659,944.308411 768.983521,942.619873 766.827332,938.420471 
	C764.895569,934.658081 766.790405,932.028381 769.309570,930.098938 
	C772.172974,927.905884 775.567444,927.742004 778.254272,930.850281 
	C781.129883,934.177002 780.634338,937.754639 776.603882,941.864868 
z"/>
<path fill="#FCFCFC" opacity="1.000000" stroke="none" 
	d="
M883.958740,874.018127 
	C880.013550,872.070312 876.702698,869.906189 879.024902,865.085938 
	C881.072998,860.834534 885.454346,858.790222 888.759155,861.233032 
	C890.791321,862.735291 892.601929,866.218445 892.423035,868.658936 
	C892.111267,872.911255 888.274109,874.890625 883.958740,874.018127 
z"/>
<path fill="#FCFCFC" opacity="1.000000" stroke="none" 
	d="
M764.757812,591.457886 
	C766.760864,595.061890 766.625549,598.497009 763.609863,600.479797 
	C761.567261,601.822754 758.194885,602.435913 755.879211,601.769714 
	C752.353699,600.755432 751.061829,597.197937 752.158813,593.778442 
	C752.753540,591.924622 754.821106,589.430725 756.431091,589.267700 
	C759.054138,589.002075 761.846497,590.409058 764.757812,591.457886 
z"/>
<path fill="#FBFBFB" opacity="1.000000" stroke="none" 
	d="
M857.680420,941.193726 
	C856.698364,938.070374 855.204285,935.080139 855.628723,932.392883 
	C855.850037,930.991394 859.340027,929.701416 861.552734,929.123657 
	C864.193604,928.434143 866.961304,928.922913 867.916443,932.159729 
	C869.075928,936.089111 868.709412,939.667297 865.104004,942.386414 
	C862.346741,944.465820 860.085876,943.733521 857.680420,941.193726 
z"/>
<path fill="#FCFCFC" opacity="1.000000" stroke="none" 
	d="
M561.556641,349.993591 
	C554.849182,350.001373 551.724182,346.780853 552.565125,341.852081 
	C553.274109,337.696777 556.600037,335.756622 559.343079,336.354889 
	C562.140991,336.965027 565.395508,339.923492 566.503418,342.646027 
	C567.715515,345.624573 565.323181,348.623047 561.556641,349.993591 
z"/>
<path fill="#FCFCFC" opacity="1.000000" stroke="none" 
	d="
M802.750305,282.449158 
	C802.915405,286.440094 801.740417,289.632538 798.132812,290.871429 
	C794.766052,292.027618 791.620972,290.477264 790.244507,287.453888 
	C789.324280,285.432465 789.143494,282.164337 790.206543,280.406311 
	C791.267212,278.652222 794.188782,277.566132 796.476990,277.117065 
	C800.050903,276.415710 801.371887,279.382629 802.750305,282.449158 
z"/>
<path fill="#FBFBFC" opacity="1.000000" stroke="none" 
	d="
M723.403442,151.021652 
	C726.152832,151.788162 729.016663,151.994919 730.694763,153.512650 
	C732.880310,155.489273 735.060364,158.258392 731.931641,161.612350 
	C728.766174,165.005753 724.645996,166.184082 721.633484,163.832352 
	C718.495850,161.382980 718.281921,158.079575 720.071472,154.716431 
	C720.793762,153.359131 722.002991,152.260986 723.403442,151.021652 
z"/>
<path fill="#FCFCFC" opacity="1.000000" stroke="none" 
	d="
M560.266235,200.757065 
	C557.117371,198.404404 555.528992,195.098938 557.520020,192.455322 
	C559.164429,190.271973 562.738647,188.762039 565.603638,188.490112 
	C568.675415,188.198547 570.701538,191.383255 570.781067,194.177521 
	C570.844543,196.407669 569.525330,199.038055 568.046692,200.864944 
	C565.937622,203.470657 563.102722,203.561020 560.266235,200.757065 
z"/>
<path fill="#FCFCFC" opacity="1.000000" stroke="none" 
	d="
M588.667603,180.702789 
	C583.749146,183.088593 580.681885,180.168839 578.880127,176.933762 
	C577.920349,175.210327 578.715881,171.462021 580.096069,169.716156 
	C582.450317,166.738159 586.358215,165.839722 589.274109,168.939529 
	C590.794006,170.555344 591.321533,173.526291 591.405701,175.916550 
	C591.458069,177.403854 589.843445,178.949860 588.667603,180.702789 
z"/>
<path fill="#FCFDFD" opacity="1.000000" stroke="none" 
	d="
M757.752441,171.517609 
	C757.798706,178.544449 753.647278,182.383423 748.792236,180.306427 
	C745.691772,178.980042 743.663635,177.019348 743.948486,173.220047 
	C744.210205,169.729919 746.150818,167.724396 749.234497,167.109650 
	C752.814819,166.395935 756.212158,166.896698 757.752441,171.517609 
z"/>
<path fill="#FCFDFD" opacity="1.000000" stroke="none" 
	d="
M765.717224,199.218369 
	C763.757446,194.918900 765.678467,191.002960 770.065918,189.003815 
	C773.824158,187.291351 776.340027,188.610947 777.946228,191.993179 
	C779.673523,195.630112 777.558105,200.952042 774.052307,202.462692 
	C770.391541,204.040070 768.218384,201.711578 765.717224,199.218369 
z"/>
<path fill="#FCFCFC" opacity="1.000000" stroke="none" 
	d="
M579.885986,601.990479 
	C575.311951,603.326599 570.980042,601.147217 569.592407,597.059753 
	C568.570923,594.050964 571.201599,590.064331 574.849365,589.093018 
	C578.846680,588.028687 583.265564,590.286133 583.517883,594.478516 
	C583.663147,596.891174 581.434509,599.446716 579.885986,601.990479 
z"/>
<path fill="#FCFCFC" opacity="1.000000" stroke="none" 
	d="
M632.021118,145.959839 
	C634.088562,140.996399 637.531433,141.347305 641.376831,142.850540 
	C645.023865,144.276230 646.169800,146.990158 644.937927,150.457672 
	C643.779236,153.718826 642.203491,156.877304 637.661987,156.011215 
	C634.029968,155.318604 631.297852,150.752838 632.021118,145.959839 
z"/>
<path fill="#FCFCFC" opacity="1.000000" stroke="none" 
	d="
M751.129883,570.992798 
	C746.466553,569.920837 743.697205,567.452576 744.113770,562.811951 
	C744.447327,559.095520 747.183533,557.196960 750.643799,557.095825 
	C753.740112,557.005310 757.482605,558.004944 757.564636,561.514038 
	C757.631897,564.387695 755.573120,567.368469 754.191772,570.171143 
	C753.908691,570.745483 752.448608,570.739685 751.129883,570.992798 
z"/>
<path fill="#FCFCFC" opacity="1.000000" stroke="none" 
	d="
M580.821960,570.294556 
	C577.255676,567.301453 576.214966,563.595032 578.575989,560.298584 
	C579.856262,558.510986 583.198181,557.628540 585.697693,557.428040 
	C588.928650,557.168823 590.721741,560.127319 590.737976,562.759094 
	C590.753540,565.266052 589.572205,568.130249 588.053223,570.204773 
	C586.299011,572.600525 583.523987,572.292419 580.821960,570.294556 
z"/>
<path fill="#FCFDFD" opacity="1.000000" stroke="none" 
	d="
M790.814453,258.274780 
	C787.223755,255.700623 787.237366,252.222733 788.467957,249.234848 
	C789.671570,246.312408 792.881226,245.068542 795.914368,246.128479 
	C798.045654,246.873306 800.617249,248.450043 801.475830,250.343079 
	C803.826843,255.526840 798.158142,259.875092 790.814453,258.274780 
z"/>
<path fill="#FBFBFC" opacity="1.000000" stroke="none" 
	d="
M789.116028,215.672394 
	C792.666138,218.950729 795.010559,222.580963 791.654175,226.495087 
	C790.084900,228.325089 785.864502,230.105927 784.350098,229.249313 
	C781.939575,227.885803 779.665771,224.410049 779.385803,221.621582 
	C779.032349,218.101715 784.416626,215.126022 789.116028,215.672394 
z"/>
<path fill="#FCFCFC" opacity="1.000000" stroke="none" 
	d="
M567.090332,632.991943 
	C559.667603,630.217712 557.580933,625.296997 561.509277,620.967773 
	C563.696472,618.557373 566.450134,618.010864 569.157104,619.134216 
	C572.643005,620.580750 574.056763,623.954224 572.814453,627.255737 
	C571.964111,629.515625 569.329773,631.104187 567.090332,632.991943 
z"/>
<path fill="#FBFBFC" opacity="1.000000" stroke="none" 
	d="
M769.692871,619.004944 
	C776.014587,621.741638 777.881348,626.648987 774.290405,630.192383 
	C771.998230,632.454224 769.461304,634.153687 766.141663,632.000305 
	C763.656616,630.388306 761.315613,629.010986 762.369507,625.096252 
	C763.405212,621.249390 764.446960,618.194397 769.692871,619.004944 
z"/>
<path fill="#FBFBFB" opacity="1.000000" stroke="none" 
	d="
M831.976624,943.002625 
	C826.455322,941.601685 825.049011,939.035095 825.995300,932.886902 
	C826.517090,929.496704 828.807922,929.044617 831.751831,928.950195 
	C836.275452,928.805054 838.604126,931.380066 838.828979,935.220337 
	C839.066406,939.275513 836.913208,942.379211 831.976624,943.002625 
z"/>
<path fill="#FBFBFC" opacity="1.000000" stroke="none" 
	d="
M897.942627,846.004333 
	C892.449524,844.820557 889.910583,841.320435 891.087585,836.545715 
	C891.957642,833.015991 894.839905,830.820801 898.087769,832.224915 
	C900.780151,833.388855 904.157349,836.253540 904.500061,838.740906 
	C904.933716,841.888245 903.088501,845.852356 897.942627,846.004333 
z"/>
<path fill="#FBFBFC" opacity="1.000000" stroke="none" 
	d="
M584.022339,530.456970 
	C586.080994,525.358826 590.267944,525.220337 594.028442,526.370911 
	C595.488586,526.817749 596.499146,530.197388 596.884827,532.387207 
	C597.684204,536.926453 594.324890,538.982605 590.765259,539.827454 
	C587.036499,540.712463 584.240967,537.481445 584.000488,532.861877 
	C583.966064,532.201538 584.001038,531.537659 584.022339,530.456970 
z"/>
<path fill="#FBFBFC" opacity="1.000000" stroke="none" 
	d="
M569.691406,406.257019 
	C564.647766,404.857758 564.513123,401.062683 565.152222,397.546173 
	C565.804932,393.954712 568.938843,392.951813 572.308716,393.005798 
	C575.615662,393.058746 578.289185,394.334198 578.280151,397.980927 
	C578.271851,401.358093 578.098938,405.099731 573.601013,406.040131 
	C572.431274,406.284729 571.221008,406.335419 569.691406,406.257019 
z"/>
<path fill="#FBFBFB" opacity="1.000000" stroke="none" 
	d="
M809.005371,933.914490 
	C810.441956,938.521667 808.058228,941.023438 804.749939,942.584900 
	C801.174011,944.272644 798.770142,942.003784 797.062012,939.132019 
	C795.017456,935.694580 795.478027,931.879944 798.793823,930.172852 
	C800.933594,929.071228 804.380310,930.252625 807.159302,930.815430 
	C807.918823,930.969238 808.382385,932.584717 809.005371,933.914490 
z"/>
<path fill="#FCFCFC" opacity="1.000000" stroke="none" 
	d="
M614.627808,163.723297 
	C610.977661,166.061035 607.659058,165.010422 605.493774,162.629944 
	C604.131470,161.132233 603.805176,158.025742 604.132263,155.805679 
	C604.696960,151.972092 607.686096,150.139221 611.366760,151.115540 
	C614.631897,151.981628 617.292114,154.251953 616.897278,158.158829 
	C616.712708,159.985077 615.636353,161.721191 614.627808,163.723297 
z"/>
<path fill="#FBFBFC" opacity="1.000000" stroke="none" 
	d="
M716.311768,928.754456 
	C721.495117,930.693542 720.304016,934.906860 719.699036,938.127380 
	C719.351990,939.974731 716.917114,942.274902 714.995239,942.795715 
	C711.578491,943.721497 709.545532,941.168884 707.962524,938.192993 
	C705.234009,933.063965 709.201904,928.333313 716.311768,928.754456 
z"/>
<path fill="#FCFCFC" opacity="1.000000" stroke="none" 
	d="
M784.130371,649.611633 
	C788.619873,652.929749 787.502014,656.645630 785.346680,660.039551 
	C783.037292,663.676086 779.692078,662.864502 776.674561,660.896790 
	C773.223389,658.646240 772.498840,655.118469 774.179260,651.710754 
	C776.235657,647.540771 780.329834,649.056946 784.130371,649.611633 
z"/>
<path fill="#FCFDFD" opacity="1.000000" stroke="none" 
	d="
M578.054565,360.997314 
	C580.651489,362.209045 584.123413,362.987457 584.702881,364.728516 
	C585.710205,367.755219 585.674500,372.238159 581.284851,373.002655 
	C578.586670,373.472595 575.016296,372.523407 572.746643,370.922546 
	C570.138916,369.083191 570.367798,365.552582 572.570251,363.160828 
	C573.703125,361.930511 575.907471,361.686829 578.054565,360.997314 
z"/>
<path fill="#FBFBFC" opacity="1.000000" stroke="none" 
	d="
M865.996582,782.996460 
	C867.199707,780.441345 866.343872,776.667725 870.622498,776.972534 
	C873.600647,777.184753 876.761475,776.401245 878.548706,780.028870 
	C880.367737,783.721069 879.250549,787.803711 875.520508,789.748779 
	C872.160034,791.501099 868.552307,790.068237 866.705200,786.159424 
	C866.307739,785.318359 866.223755,784.329102 865.996582,782.996460 
z"/>
<path fill="#FBFBFC" opacity="1.000000" stroke="none" 
	d="
M584.236328,465.275513 
	C588.647278,462.630798 592.523865,463.060303 594.637268,466.294647 
	C596.837402,469.661682 596.397766,472.532501 593.261414,475.386444 
	C590.174011,478.195831 587.506531,477.078156 584.862122,475.257019 
	C580.831726,472.481384 581.271973,469.069397 584.236328,465.275513 
z"/>
<path fill="#FBFBFC" opacity="1.000000" stroke="none" 
	d="
M740.432739,494.263794 
	C744.258728,494.160004 747.384521,495.000214 747.946594,499.031403 
	C748.406250,502.327759 747.907837,505.481201 744.255127,507.008545 
	C740.828430,508.441437 736.193115,506.529572 734.993469,503.202667 
	C733.365723,498.688782 734.799988,496.225372 740.432739,494.263794 
z"/>
<path fill="#FBFBFB" opacity="1.000000" stroke="none" 
	d="
M737.007690,935.962158 
	C737.220276,931.619568 739.292969,928.566528 743.114685,928.736023 
	C745.343323,928.834839 748.208252,931.129517 749.443970,933.227234 
	C751.336487,936.440186 749.682129,939.482910 746.752197,941.769775 
	C742.987122,944.708496 738.514343,942.265503 737.007690,935.962158 
z"/>
<path fill="#FBFBFC" opacity="1.000000" stroke="none" 
	d="
M690.328125,939.184082 
	C687.967102,943.252686 684.095642,942.695618 681.562500,941.495789 
	C679.650696,940.590393 677.537903,936.624390 678.097717,934.823792 
	C678.884888,932.292236 681.771851,929.983093 684.310364,928.557373 
	C686.492065,927.331970 690.704407,931.028381 690.941711,933.982971 
	C691.070984,935.592651 690.734802,937.239624 690.328125,939.184082 
z"/>
<path fill="#FCFCFC" opacity="1.000000" stroke="none" 
	d="
M883.313110,807.320923 
	C884.750854,802.856812 888.097717,801.155945 891.624390,802.289246 
	C893.821045,802.995117 896.622131,806.233948 896.592285,808.299072 
	C896.557617,810.697083 894.186768,813.715149 891.985596,815.264771 
	C889.150452,817.260681 886.417297,815.671082 884.971863,812.515564 
	C884.247192,810.933533 883.705139,809.267761 883.313110,807.320923 
z"/>
<path fill="#FCFCFC" opacity="1.000000" stroke="none" 
	d="
M825.504761,687.203491 
	C828.342651,689.522522 830.655151,692.062866 828.858276,695.438538 
	C827.852966,697.327271 825.648132,699.412170 823.705566,699.735046 
	C821.723511,700.064514 818.315918,698.928833 817.483093,697.383423 
	C816.252441,695.099976 815.963501,691.611938 816.818909,689.180603 
	C817.281555,687.865601 820.939209,687.635437 823.182190,687.011902 
	C823.790344,686.842896 824.495728,687.023682 825.504761,687.203491 
z"/>
<path fill="#FBFBFC" opacity="1.000000" stroke="none" 
	d="
M847.212952,757.968628 
	C852.335571,756.350403 855.230042,757.412903 856.652954,761.219116 
	C857.996399,764.812622 855.793152,769.976074 851.826843,770.291626 
	C849.408142,770.484009 846.002136,768.508240 844.409851,766.447510 
	C842.020996,763.356140 843.573608,760.165649 847.212952,757.968628 
z"/>
<path fill="#FCFCFC" opacity="1.000000" stroke="none" 
	d="
M790.011658,679.420837 
	C794.485718,673.365540 799.052063,673.380310 802.323608,678.555542 
	C804.376465,681.802979 802.980652,684.241943 801.091736,686.078247 
	C799.725525,687.406311 796.638611,688.436218 795.114380,687.772583 
	C793.015564,686.858765 791.578003,684.288940 790.057251,682.277283 
	C789.658386,681.749695 789.998230,680.663635 790.011658,679.420837 
z"/>
<path fill="#FCFCFC" opacity="1.000000" stroke="none" 
	d="
M796.124146,435.048340 
	C797.255554,435.334412 797.971375,435.852570 798.731995,435.930023 
	C802.486084,436.312378 804.475037,439.563019 803.616394,441.955200 
	C802.617493,444.738159 799.543579,447.571777 796.724182,448.583740 
	C795.223755,449.122284 791.368958,446.331940 790.350281,444.197754 
	C788.946350,441.256226 789.828491,437.769867 793.534546,436.100037 
	C794.270325,435.768494 794.997864,435.418671 796.124146,435.048340 
z"/>
<path fill="#FBFBFC" opacity="1.000000" stroke="none" 
	d="
M836.780762,739.444214 
	C839.460205,744.086792 837.206360,747.460510 833.847107,749.201965 
	C832.087463,750.114197 828.173645,749.112427 826.581848,747.576660 
	C824.246094,745.323303 822.734558,741.890015 825.897949,738.591858 
	C828.591248,735.783813 832.676453,735.917542 836.780762,739.444214 
z"/>
<path fill="#FCFCFC" opacity="1.000000" stroke="none" 
	d="
M588.005615,499.409058 
	C592.541626,493.326721 596.599670,492.479614 599.859985,496.806763 
	C601.464661,498.936584 602.848083,501.734985 600.317505,504.090515 
	C598.579895,505.707977 595.889221,508.064453 594.275085,507.636536 
	C591.881042,507.001862 589.986572,504.267090 588.060913,502.252808 
	C587.644470,501.817139 587.998535,500.644928 588.005615,499.409058 
z"/>
<path fill="#FCFCFC" opacity="1.000000" stroke="none" 
	d="
M843.332764,719.167908 
	C840.820496,723.920105 836.801208,723.471191 833.754700,721.579163 
	C831.996094,720.487061 830.978088,716.907837 831.025024,714.474976 
	C831.120117,709.553040 835.245728,709.878845 838.684692,710.034302 
	C842.661072,710.214172 843.526001,713.258667 843.952698,716.454163 
	C844.056152,717.228943 843.732483,718.060791 843.332764,719.167908 
z"/>
<path fill="#FCFCFC" opacity="1.000000" stroke="none" 
	d="
M791.443848,419.804871 
	C785.581909,419.827393 782.865906,417.718384 783.029846,413.706299 
	C783.218201,409.096588 786.480408,406.547455 791.207703,406.969330 
	C794.869446,407.296082 796.766602,410.435852 796.592468,412.675079 
	C796.402893,415.112976 793.525330,417.341797 791.443848,419.804871 
z"/>
<path fill="#FBFBFC" opacity="1.000000" stroke="none" 
	d="
M746.453369,526.201416 
	C748.556641,528.013855 751.295410,529.419678 751.789612,531.388855 
	C752.828308,535.527344 750.041138,538.775696 746.362488,538.989868 
	C741.621460,539.265930 739.162964,536.953857 738.995178,532.061401 
	C738.818115,526.896729 739.864685,526.007690 746.453369,526.201416 
z"/>
<path fill="#FCFCFC" opacity="1.000000" stroke="none" 
	d="
M770.995605,453.000854 
	C775.515747,451.308838 777.204285,454.242615 778.484497,457.135864 
	C780.019531,460.604797 778.078979,463.373474 775.223450,464.842834 
	C772.017029,466.492737 768.636597,465.858978 766.374695,462.718353 
	C764.419373,460.003448 764.259766,457.267395 767.391724,455.119202 
	C768.447754,454.394928 769.542969,453.727783 770.995605,453.000854 
z"/>
<path fill="#FBFBFB" opacity="1.000000" stroke="none" 
	d="
M769.988220,398.215057 
	C769.459961,403.649200 766.613342,407.198090 763.425171,406.807556 
	C759.673401,406.347992 756.042969,402.780151 757.252197,399.556610 
	C758.204834,397.017456 761.007263,394.400482 763.588806,393.450073 
	C766.465820,392.390839 769.114807,394.456421 769.988220,398.215057 
z"/>
<path fill="#FBFBFC" opacity="1.000000" stroke="none" 
	d="
M751.694275,474.782104 
	C745.407410,478.397980 741.132202,477.492401 740.300415,472.212982 
	C739.958923,470.045410 741.007996,466.688080 742.634155,465.404968 
	C745.177307,463.398285 748.778748,463.685913 751.431641,466.063049 
	C754.221436,468.562866 753.955261,471.554138 751.694275,474.782104 
z"/>
</svg>